<svg id="Capa_1" enable-background="new 0 0 510.46 510.46" height="512" viewBox="0 0 510.46 510.46" width="512" xmlns="http://www.w3.org/2000/svg"><g><path d="m415.95 494.33h-48.09v-379.481c0-12.407-10.093-22.5-22.5-22.5h-263.49c-12.407 0-22.5 10.093-22.5 22.5v379.481h-27.87c-9.098 0-16.5-7.402-16.5-16.5v-329.8c0-4.142-3.358-7.5-7.5-7.5s-7.5 3.358-7.5 7.5v329.8c0 17.369 14.131 31.5 31.5 31.5h384.45c4.142 0 7.5-3.358 7.5-7.5s-3.358-7.5-7.5-7.5zm-63.09-379.481v379.481h-131.75v-386.981h124.25c4.135 0 7.5 3.364 7.5 7.5zm-278.49 0c0-4.136 3.364-7.5 7.5-7.5h124.24v386.981h-131.74z"/><path d="m478.96 1.13h-447.46c-17.369 0-31.5 14.131-31.5 31.5v80.4c0 4.142 3.358 7.5 7.5 7.5s7.5-3.358 7.5-7.5v-80.4c0-9.098 7.402-16.5 16.5-16.5h447.46c9.098 0 16.5 7.402 16.5 16.5v445.2c0 9.098-7.402 16.5-16.5 16.5h-28.01c-4.142 0-7.5 3.358-7.5 7.5s3.358 7.5 7.5 7.5h28.01c17.369 0 31.5-14.131 31.5-31.5v-445.2c0-17.369-14.131-31.5-31.5-31.5z"/><path d="m305.636 79.772c6.893 0 12.5-5.607 12.5-12.5v-26.766c0-6.893-5.607-12.5-12.5-12.5h-184.042c-6.893 0-12.5 5.607-12.5 12.5v26.766c0 6.893 5.607 12.5 12.5 12.5zm-181.542-36.766h179.042v21.766h-179.042z"/><path d="m410.296 257.026h46.314c3.958 0 7.646-2.129 9.624-5.557 1.979-3.427 1.979-7.686 0-11.113l-23.157-40.109c-1.979-3.427-5.667-5.557-9.624-5.557s-7.646 2.129-9.624 5.557l-23.157 40.109c-1.979 3.427-1.979 7.686 0 11.113 1.978 3.428 5.666 5.557 9.624 5.557zm23.157-43.448 16.425 28.448h-32.85z"/><path d="m466.234 298.896c-1.979-3.428-5.667-5.557-9.624-5.557h-46.314c-3.958 0-7.646 2.129-9.624 5.557-1.979 3.427-1.979 7.686 0 11.113l23.157 40.109c1.979 3.427 5.667 5.557 9.624 5.557s7.646-2.129 9.624-5.557l23.157-40.109c1.979-3.427 1.979-7.686 0-11.113zm-32.781 37.892-16.425-28.448h32.85z"/></g></svg>