<svg height="512pt" viewBox="0 0 512.00081 512" width="512pt" xmlns="http://www.w3.org/2000/svg"><path d="m163.613281 172.042969-41.363281-23.640625c13.777344-10.398438 22.703125-26.90625 22.703125-45.460938 0-31.398437-25.542969-56.941406-56.941406-56.941406-31.394531 0-56.9375 25.542969-56.9375 56.941406 0 18.558594 8.929687 35.066406 22.710937 45.46875l-41.367187 23.671875c-7.832031 4.492188-12.589844 12.886719-12.41406275 21.949219l.31249975 13.386719c.128906 5.523437 4.707032 9.886719 10.230469 9.765625 5.523437-.128906 9.894531-4.710938 9.765625-10.230469l-.3125-13.351563c-.039062-2.050781 1.199219-3.5 2.359375-4.164062l50.53125-28.917969c.726563-.417969 1.511719-.628906 2.347656-.628906h.003907l25.546874-.011719c.917969 0 1.769532.246094 2.53125.730469.128907.082031.261719.160156.398438.238281l49.96875 28.554688c1.621094.925781 2.546875 2.726562 2.359375 4.585937-.023437.253907-.042969.507813-.046875.761719l-3.546875 151.746094c-.046875 2.265625-1.621094 3.8125-3.164063 4.34375-.078124.027344-.160156.054687-.238281.085937l-28.597656 10.648438c-3.90625 1.457031-6.5 5.183593-6.507813 9.351562l-.136718 70.328125c0 2.582032-2.101563 4.6875-4.699219 4.6875l-42.207031.054688c-2.613282 0-4.742188-2.125-4.742188-4.742188 0-20.292968-.023437-42.636718-.078125-70.324218-.007812-4.171876-2.601562-7.898438-6.507812-9.351563l-28.945313-10.78125c-2.09375-.78125-3.042968-2.75-3.054687-4.359375 0-.050781-.003907-.105469-.003907-.15625l-1.386718-59.351562c-.128906-5.523438-4.734375-9.890626-10.230469-9.765626-5.523437.128907-9.894531 4.710938-9.765625 10.230469l1.386719 59.289063c.121093 10.136718 6.570312 19.3125 16.074219 22.855468l22.449218 8.359376c.042969 24.519531.0625 44.796874.0625 63.355468 0 13.644532 11.101563 24.742188 24.757813 24.742188l42.203125-.058594c13.613281 0 24.6875-11.074219 24.6875-24.664062l.121094-63.375 21.996093-8.191407c9.6875-3.394531 16.320313-12.546875 16.519531-22.78125l3.542969-151.371093c.785157-9.550782-4.035156-18.742188-12.375-23.511719zm-75.597656-106.042969c20.367187 0 36.9375 16.570312 36.9375 36.941406 0 20.367188-16.570313 36.9375-36.9375 36.9375-20.371094 0-36.941406-16.570312-36.941406-36.9375 0-20.367187 16.570312-36.941406 36.941406-36.941406zm0 0"/><path d="m511.300781 334.488281-2.820312-11.664062c-1.296875-5.371094-6.699219-8.667969-12.070313-7.371094-5.367187 1.296875-8.667968 6.703125-7.367187 12.070313l2.820312 11.667968c.589844 2.433594-.828125 4.894532-3.222656 5.601563-.148437.042969-.296875.089843-.445313.140625l-48.542968 16.808594c-4.019532 1.394531-6.71875 5.175781-6.726563 9.429687l-.136719 70.082031c0 2.585938-2.101562 4.6875-4.699218 4.6875l-42.203125.058594c-1.8125 0-2.957031-.953125-3.476563-1.519531-.53125-.578125-1.398437-1.820313-1.246094-3.660157.023438-.285156.035157-.570312.035157-.855468l-.132813-68.792969c-.007812-4.253906-2.707031-8.035156-6.726562-9.429687l-49.171875-17.027344c-2.257813-.777344-3.585938-3.195313-3.023438-5.523438l36.960938-152.898437c.332031-1.359375 1.136719-2.191407 1.757812-2.660157l30.53125-22.800781c1.039063-.777343 2.101563-.941406 2.824219-.941406h.007812l25.546876-.011719c1.382812 0 2.382812.570313 2.972656 1.050782.101562.082031.207031.160156.308594.238281l30.101562 22.4375c.980469.734375 1.632812 1.800781 1.835938 3.007812.039062.234375.085937.46875.144531.699219l15.101562 62.453125c1.296875 5.367187 6.695313 8.667969 12.070313 7.371094 5.367187-1.300781 8.667968-6.703125 7.371094-12.070313l-15.03125-62.152344c-1.132813-6.148437-4.503907-11.582031-9.535157-15.339843l-24.808593-18.492188c14.304687-10.355469 23.632812-27.175781 23.632812-46.140625 0-31.398437-25.542969-56.9375-56.9375-56.9375s-56.9375 25.539063-56.9375 56.9375c0 18.96875 9.332031 35.789063 23.640625 46.144532l-24.796875 18.519531c-4.601562 3.4375-7.882812 8.402343-9.234375 13.988281l-36.957031 152.886719c-3.027344 12.441406 3.828125 24.972656 15.929687 29.140625l42.441407 14.699218.117187 61.308594c-.433594 6.742188 1.917969 13.417969 6.488281 18.386719 4.664063 5.074219 11.296875 7.984375 18.214844 7.984375l42.203125-.058594c13.609375 0 24.6875-11.074218 24.6875-24.667968l.121094-62.957032 41.636719-14.417968c12.472656-3.824219 19.824218-16.6875 16.746093-29.410157zm-104.304687-268.488281c20.367187 0 36.9375 16.570312 36.9375 36.941406 0 20.367188-16.570313 36.9375-36.9375 36.9375-20.367188 0-36.9375-16.570312-36.9375-36.9375 0-20.371094 16.570312-36.941406 36.9375-36.941406zm0 0"/><path d="m240.246094 0c-16.542969 0-30 13.457031-30 30v451.996094c0 16.542968 13.457031 30 30 30 16.542968 0 30-13.457032 30-30v-451.996094c0-16.542969-13.457032-30-30-30zm10 482c0 5.511719-4.484375 10-10 10-5.511719 0-10-4.488281-10-10v-452c0-5.515625 4.488281-10 10-10 5.515625 0 10 4.484375 10 10zm0 0"/><path d="m11.25 257.175781c5.523438 0 10-4.476562 10-10v-.007812c0-5.519531-4.476562-9.996094-10-9.996094s-10 4.480469-10 10.003906c0 5.523438 4.476562 10 10 10zm0 0"/><path d="m486.609375 276.679688c-5.308594 1.515624-8.382813 7.054687-6.867187 12.367187 1.257812 4.390625 5.261718 7.253906 9.613281 7.253906.90625 0 1.832031-.125 2.75-.386719 5.3125-1.519531 8.386719-7.054687 6.867187-12.363281v-.007812c-1.519531-5.308594-7.054687-8.378907-12.363281-6.863281zm0 0"/></svg>